<?xml version="1.0" encoding="UTF-8" standalone="no"?>
<!-- Created with Inkscape (http://www.inkscape.org/) -->

<svg
   xmlns:dc="http://purl.org/dc/elements/1.1/"
   xmlns:cc="http://creativecommons.org/ns#"
   xmlns:rdf="http://www.w3.org/1999/02/22-rdf-syntax-ns#"
   xmlns:svg="http://www.w3.org/2000/svg"
   xmlns="http://www.w3.org/2000/svg"
   version="1.2"
   width="530.36731"
   height="608.89453"
   id="svg2">
  <metadata
     id="metadata3050">
    <rdf:RDF>
      <cc:Work
         rdf:about="">
        <dc:format>image/svg+xml</dc:format>
        <dc:type
           rdf:resource="http://purl.org/dc/dcmitype/StillImage" />
        <dc:title></dc:title>
      </cc:Work>
    </rdf:RDF>
  </metadata>
  <defs
     id="defs3048" />
  <g
     transform="translate(0.12447291,0.05646031)"
     id="g3029">
    <g
       id="Calque_1">
      <path
         d="m 336.589,490.019 c 0.335,0.144 2.081,0.4 2.561,0.372 0.479,-0.029 1.005,0.05 1.456,0.308 0.243,0.14 0.615,0.256 1.003,0.336 0.403,0.084 0.688,0.117 0.993,0.402 0.34,0.317 -0.232,0.203 -0.628,0.18 -0.231,-0.014 -0.379,0.034 -0.574,0.077 -0.175,0.039 -0.54,0.049 -0.812,0.12 -0.345,0.09 -0.419,0.197 -0.678,0.269 -0.463,0.13 -1.56,0.503 -1.927,0.563 -0.51,0.084 0.91,1.233 1.565,1.565 0.463,0.234 1.327,0.717 1.12,2.106 -0.149,1.008 -0.345,3.714 -0.649,4.391 -0.303,0.677 -0.852,1.594 -1.263,1.624 -0.243,0.019 0.687,-1.518 0.648,-2.076 -0.003,-0.046 -0.11,-0.078 -0.24,0.156 -0.176,0.32 -0.334,0.884 -0.697,1.47 -0.523,0.841 -1.342,1.744 -2.158,2.174 -1.43,0.755 2.081,-2.91 1.648,-3.174 -0.105,-0.063 -0.7,0.863 -1.482,1.756 -0.764,0.872 -1.761,1.667 -2.181,1.763 -0.337,0.077 0.122,-0.594 0.534,-1.142 0.646,-0.858 1.737,-1.832 1.503,-1.973 -0.124,-0.074 -0.742,0.704 -1.555,1.442 -0.941,0.855 -2.1,1.682 -2.286,1.493 -0.35,-0.354 2.401,-2.373 2.323,-2.896 -0.235,-0.2 -0.588,0.135 -0.56,-0.27 0.027,-0.405 0.188,-0.723 -0.015,-0.662 -0.161,0.049 -0.775,0.478 -0.96,0.315 -0.186,-0.163 0.067,-0.852 -0.038,-0.944 -0.105,-0.092 -0.624,0.061 -0.719,-0.108 -0.095,-0.169 0.099,-0.949 0.014,-0.979 -0.084,-0.031 -0.336,0.104 -0.488,-0.074 -0.256,-0.296 -0.019,-0.844 -0.099,-1.029 -0.089,-0.208 -0.79,-0.373 -0.516,-0.531 0.082,-0.047 0.318,-0.098 0.566,-0.079 0.25,0.019 0.512,0.107 0.638,0.037 0.119,-0.066 -0.394,-0.232 -0.594,-0.28 -0.2,-0.048 -0.927,0.163 -1.229,-0.211 -0.304,-0.374 -0.39,-0.743 -0.648,-0.799 -0.258,-0.057 -0.786,-0.463 -0.338,-0.511 0.201,-0.021 0.118,-0.173 -0.259,-0.271 -0.769,-0.198 -0.663,-0.375 -0.607,-0.561 0.028,-0.094 -0.136,-0.092 -0.278,-0.212 -0.141,-0.12 -0.018,-0.383 -0.366,-0.35 -0.215,0.021 -0.625,0.024 -0.771,0.004 -0.146,-0.02 -2.306,0.485 -2.441,0.603 -0.135,0.118 -0.103,-0.162 -0.103,-0.162 0,0 -0.138,0.184 -0.317,0.197 -0.179,0.013 -1.492,0.398 -2.086,0.197 -0.594,-0.201 -1.787,-0.243 -1.942,-0.615 -0.09,-0.221 0.229,-0.392 0.628,-0.493 0.277,-0.07 0.341,-0.07 0.648,-0.128 0.548,-0.103 -0.29,-0.07 -0.259,-0.28 0.028,-0.21 0.317,-0.146 0.029,-0.213 -0.464,-0.11 -0.989,0.054 -1.152,-0.047 -0.164,-0.102 -0.164,-0.121 -0.15,-0.224 0.015,-0.103 -0.287,-0.033 -0.277,-0.11 0.012,-0.076 0.688,-1.497 2.082,-1.298 0.931,0.132 3.901,0.149 4.202,0.13 0.569,-0.036 1.957,-0.592 2.946,-0.612 0.146,-0.003 0.316,-0.361 0.105,-0.396 -0.041,-0.008 -1.246,0.277 -1.152,0.094 0.105,-0.204 -1.047,0.163 -1.411,0.13 -0.447,-0.041 -0.321,-0.23 -0.132,-0.465 0.077,-0.096 -0.374,-0.134 -0.187,-0.449 0.06,-0.1 0.244,-0.116 0.282,-0.219 0.033,-0.094 -0.134,-0.205 -0.058,-0.285 0.099,-0.1 0.326,-0.066 0.367,-0.193 0.045,-0.14 0.028,-0.318 -0.041,-0.481 -0.056,-0.133 -0.133,-0.227 -0.114,-0.381 0.025,-0.213 0.262,-0.123 0.297,-0.306 0.021,-0.102 -0.193,-0.211 -0.149,-0.314 0.045,-0.103 0.233,-0.17 0.217,-0.246 -0.05,-0.248 -0.533,-0.277 -0.57,-0.493 -0.021,-0.122 0.205,-0.048 0.155,-0.16 -0.087,-0.203 -0.585,-0.321 -0.618,-0.483 -0.024,-0.117 0.596,-0.01 0.559,-0.111 -0.095,-0.253 -0.55,-0.245 -0.553,-0.45 -10e-4,-0.159 0.824,0.006 0.985,-0.043 0.147,-0.045 -0.453,-0.262 -0.379,-0.3 0.273,-0.143 0.461,0.055 0.657,-0.041 0.209,-0.101 -1.326,-0.417 -2.314,-0.717 -1.462,-0.445 -2.635,-0.918 -2.572,-1.104 0.05,-0.148 1.326,0.269 2.789,0.683 1.796,0.508 3.622,0.819 3.62,0.793 -0.015,-0.152 -1.744,-0.626 -3.021,-1.183 -1.254,-0.549 -2.111,-1.204 -1.974,-1.319 0.132,-0.111 1.357,0.479 2.802,1.097 1.669,0.713 3.642,1.471 3.784,1.338 0.179,-0.165 -2.036,-0.85 -3.071,-1.558 -1.045,-0.717 -1.647,-1.214 -1.474,-1.284 0.229,-0.094 1.578,0.801 2.699,1.369 1.796,0.908 3.644,1.911 3.832,1.858 0.185,-0.053 -0.681,-0.466 -1.416,-0.925 -0.747,-0.467 -1.374,-1.007 -1.161,-1.048 0.206,-0.04 1.822,1.105 3.563,2.169 1.826,1.114 3.531,1.751 3.479,2.379 -0.035,0.408 -0.466,0.502 -0.651,0.906 -0.175,0.387 -0.275,1.255 0.061,1.402 z"
         id="path3032" />
      <path
         d="m 299.103,403.222 c 0.376,0.076 2.11,-0.258 2.541,-0.496 0.431,-0.238 0.955,-0.336 1.486,-0.141 0.286,0.106 0.682,0.126 1.077,0.086 0.411,-0.042 0.691,-0.108 1.1,0.187 0.454,0.33 -0.128,0.395 -0.504,0.521 -0.222,0.074 -0.337,0.205 -0.5,0.35 -0.144,0.129 -0.479,0.292 -0.699,0.508 -0.28,0.275 -0.302,0.463 -0.511,0.674 -0.373,0.38 -1.226,1.378 -1.541,1.617 -0.436,0.33 1.387,1.446 2.141,1.668 0.532,0.157 1.546,0.515 1.966,2.649 0.304,1.548 1.312,5.621 1.327,6.741 0.017,1.123 -0.089,2.699 -0.457,2.913 -0.218,0.126 -0.031,-2.52 -0.312,-3.328 -0.022,-0.066 -0.137,-0.069 -0.154,0.329 -0.022,0.543 0.079,1.44 -0.002,2.452 -0.115,1.454 -0.479,3.12 -1.046,4.089 -0.994,1.696 0.651,-5.144 0.134,-5.354 -0.125,-0.052 -0.271,1.558 -0.603,3.194 -0.325,1.597 -0.901,3.179 -1.249,3.491 -0.279,0.251 -0.148,-0.926 -0.006,-1.902 0.222,-1.531 0.807,-3.413 0.527,-3.523 -0.148,-0.06 -0.378,1.342 -0.809,2.762 -0.498,1.646 -1.208,3.339 -1.465,3.137 -0.48,-0.378 1.186,-4.482 0.883,-5.22 -0.306,-0.199 -0.486,0.439 -0.639,-0.17 -0.151,-0.607 -0.143,-1.142 -0.304,-0.97 -0.129,0.138 -0.509,1.021 -0.752,0.857 -0.243,-0.166 -0.312,-1.283 -0.45,-1.377 -0.139,-0.095 -0.553,0.344 -0.714,0.134 -0.163,-0.211 -0.326,-1.439 -0.419,-1.452 -0.092,-0.011 -0.267,0.291 -0.485,0.092 -0.368,-0.333 -0.388,-1.237 -0.544,-1.479 -0.174,-0.269 -0.897,-0.228 -0.712,-0.572 0.055,-0.102 0.252,-0.275 0.49,-0.349 0.241,-0.074 0.522,-0.049 0.608,-0.206 0.08,-0.145 -0.467,-0.18 -0.674,-0.169 -0.207,0.011 -0.788,0.617 -1.233,0.189 -0.445,-0.427 -0.687,-0.936 -0.952,-0.913 -0.265,0.022 -0.932,-0.361 -0.539,-0.614 0.179,-0.115 0.034,-0.305 -0.358,-0.293 -0.799,0.021 -0.779,-0.281 -0.81,-0.58 -0.015,-0.149 -0.165,-0.079 -0.351,-0.199 -0.186,-0.119 -0.186,-0.557 -0.494,-0.365 -0.189,0.118 -0.569,0.291 -0.714,0.32 -0.144,0.028 -1.926,1.659 -2,1.887 -0.073,0.228 -0.167,-0.198 -0.167,-0.198 0,0 -0.046,0.328 -0.207,0.421 -0.161,0.094 -1.209,1.197 -1.849,1.143 -0.639,-0.055 -1.765,0.372 -2.072,-0.114 -0.18,-0.287 0.039,-0.671 0.366,-0.984 0.226,-0.216 0.285,-0.241 0.544,-0.451 0.464,-0.375 -0.299,0.014 -0.362,-0.308 -0.065,-0.322 0.23,-0.345 -0.066,-0.328 -0.479,0.028 -0.894,0.484 -1.091,0.401 -0.196,-0.082 -0.204,-0.11 -0.236,-0.268 -0.031,-0.158 -0.283,0.068 -0.306,-0.049 -0.023,-0.116 -0.02,-2.488 1.361,-2.766 0.921,-0.186 3.685,-1.374 3.956,-1.525 0.511,-0.284 1.555,-1.671 2.464,-2.106 0.133,-0.063 0.134,-0.662 -0.077,-0.629 -0.041,0.007 -1.033,0.92 -1.026,0.609 0.008,-0.342 -0.899,0.67 -1.254,0.77 -0.433,0.122 -0.398,-0.209 -0.325,-0.633 0.028,-0.174 -0.406,-0.042 -0.37,-0.585 0.01,-0.173 0.174,-0.271 0.164,-0.439 -0.01,-0.15 -0.214,-0.247 -0.179,-0.397 0.047,-0.187 0.273,-0.23 0.255,-0.435 -0.02,-0.224 -0.112,-0.479 -0.248,-0.693 -0.11,-0.173 -0.224,-0.278 -0.274,-0.515 -0.07,-0.324 0.188,-0.289 0.142,-0.573 -0.026,-0.158 -0.272,-0.231 -0.276,-0.401 -0.003,-0.17 0.141,-0.346 0.093,-0.452 -0.155,-0.345 -0.617,-0.191 -0.745,-0.494 -0.073,-0.172 0.168,-0.153 0.073,-0.3 -0.17,-0.264 -0.685,-0.233 -0.787,-0.461 -0.075,-0.163 0.55,-0.258 0.47,-0.392 -0.199,-0.335 -0.618,-0.138 -0.71,-0.439 -0.071,-0.233 0.767,-0.326 0.896,-0.464 0.117,-0.127 -0.535,-0.201 -0.485,-0.287 0.19,-0.324 0.452,-0.109 0.593,-0.329 0.149,-0.234 -1.414,-0.074 -2.462,-0.114 -1.553,-0.059 -2.849,-0.276 -2.872,-0.574 -0.019,-0.241 1.349,-0.147 2.888,-0.135 1.89,0.017 3.722,-0.271 3.707,-0.31 -0.081,-0.219 -1.893,-0.208 -3.322,-0.509 -1.404,-0.297 -2.488,-0.913 -2.411,-1.14 0.074,-0.219 1.471,0.151 3.082,0.472 1.861,0.371 4.025,0.681 4.1,0.429 0.092,-0.317 -2.263,-0.421 -3.535,-1.043 -1.283,-0.631 -2.063,-1.117 -1.931,-1.293 0.172,-0.231 1.815,0.538 3.106,0.917 2.065,0.605 4.219,1.33 4.371,1.175 0.148,-0.15 -0.836,-0.406 -1.72,-0.783 -0.898,-0.384 -1.719,-0.925 -1.539,-1.072 0.174,-0.145 2.177,0.885 4.261,1.742 2.184,0.898 4.045,1.142 4.273,2.09 0.146,0.614 -0.212,0.93 -0.206,1.602 0.002,0.643 0.292,1.965 0.667,2.042 z"
         id="path3034" />
      <path
         d="m 241.093,555.556 c 0.449,0.643 3.5,2.613 4.478,2.876 0.977,0.264 1.894,0.863 2.408,1.901 0.279,0.562 0.839,1.151 1.484,1.654 0.671,0.522 1.181,0.823 1.372,1.83 0.212,1.125 -0.744,0.396 -1.483,0.047 -0.433,-0.205 -0.79,-0.177 -1.234,-0.197 -0.396,-0.018 -1.124,-0.254 -1.757,-0.251 -0.802,0.003 -1.099,0.247 -1.708,0.261 -1.088,0.023 -3.762,0.27 -4.566,0.173 -1.114,-0.135 0.028,4.076 0.837,5.471 0.572,0.985 1.577,2.942 -0.801,6.653 -1.725,2.689 -5.954,10.063 -7.509,11.722 -1.555,1.658 -3.93,3.811 -4.778,3.6 -0.5,-0.125 3.5,-3.72 4.218,-5.297 0.06,-0.13 -0.104,-0.297 -0.69,0.261 -0.8,0.762 -1.911,2.215 -3.452,3.575 -2.22,1.959 -5.103,3.876 -7.311,4.485 -3.867,1.066 8.206,-6.583 7.733,-7.626 -0.115,-0.251 -2.594,1.892 -5.393,3.808 -2.731,1.87 -5.813,3.361 -6.768,3.325 -0.768,-0.029 1.081,-1.562 2.666,-2.786 2.486,-1.919 6,-3.835 5.743,-4.393 -0.137,-0.297 -2.452,1.422 -5.09,2.885 -3.057,1.695 -6.494,3.159 -6.592,2.497 -0.182,-1.229 8.071,-4.857 8.657,-6.364 -0.174,-0.724 -1.339,-0.049 -0.71,-1.151 0.629,-1.103 1.394,-1.87 0.911,-1.846 -0.383,0.019 -2.193,0.767 -2.323,0.183 -0.13,-0.584 1.341,-2.313 1.267,-2.647 -0.074,-0.333 -1.306,-0.279 -1.251,-0.816 0.055,-0.538 1.54,-2.563 1.419,-2.712 -0.121,-0.149 -0.804,0.046 -0.85,-0.555 -0.08,-1.009 1.163,-2.356 1.271,-2.93 0.12,-0.64 -1.012,-1.605 -0.253,-1.846 0.224,-0.07 0.762,-0.043 1.219,0.188 0.463,0.232 0.845,0.669 1.194,0.562 0.326,-0.099 -0.441,-0.927 -0.765,-1.204 -0.325,-0.277 -2.042,-0.216 -2.103,-1.47 -0.061,-1.256 0.296,-2.342 -0.13,-2.685 -0.426,-0.342 -0.88,-1.848 0.062,-1.66 0.427,0.085 0.477,-0.396 -0.121,-0.935 -1.22,-1.103 -0.764,-1.518 -0.39,-1.995 0.188,-0.238 -0.136,-0.352 -0.241,-0.789 -0.107,-0.436 0.508,-1.073 -0.222,-1.231 -0.45,-0.098 -1.257,-0.384 -1.511,-0.547 -0.254,-0.161 -5.2,-0.308 -5.631,-0.081 -0.43,0.229 0.03,-0.528 0.03,-0.528 0,0 -0.531,0.415 -0.901,0.323 -0.371,-0.093 -3.482,0.031 -4.358,-0.954 -0.875,-0.986 -3.148,-1.96 -2.923,-3.104 0.134,-0.678 1.002,-0.923 1.93,-0.918 0.639,0.004 0.764,0.051 1.445,0.113 1.217,0.109 -0.464,-0.405 -0.107,-0.966 0.357,-0.561 0.829,-0.176 0.363,-0.571 -0.753,-0.638 -2.011,-0.562 -2.188,-0.96 -0.177,-0.398 -0.149,-0.453 0.025,-0.727 0.175,-0.274 -0.517,-0.302 -0.387,-0.506 0.129,-0.203 3.472,-3.66 5.916,-2.104 1.631,1.035 7.416,3.219 8.033,3.384 1.163,0.309 4.666,-0.234 6.632,0.419 0.287,0.096 1.13,-0.775 0.77,-1.026 -0.07,-0.048 -2.832,-0.126 -2.387,-0.566 0.494,-0.491 -2.278,-0.301 -2.946,-0.656 -0.815,-0.433 -0.301,-0.872 0.405,-1.385 0.289,-0.21 -0.545,-0.638 0.271,-1.379 0.26,-0.236 0.643,-0.146 0.863,-0.407 0.2,-0.235 0.032,-0.665 0.296,-0.832 0.33,-0.207 0.73,0.05 0.99,-0.273 0.286,-0.355 0.507,-0.862 0.605,-1.364 0.079,-0.41 0.06,-0.724 0.316,-1.14 0.352,-0.574 0.688,-0.154 1.016,-0.636 0.184,-0.268 -0.079,-0.726 0.156,-0.979 0.233,-0.254 0.694,-0.305 0.772,-0.529 0.255,-0.724 -0.649,-1.151 -0.414,-1.779 0.133,-0.351 0.467,0.017 0.532,-0.331 0.117,-0.626 -0.689,-1.312 -0.524,-1.79 0.118,-0.342 1.181,0.404 1.251,0.095 0.176,-0.77 -0.726,-1.078 -0.439,-1.647 0.224,-0.442 1.6,0.609 1.984,0.591 0.354,-0.017 -0.512,-1.053 -0.316,-1.105 0.739,-0.199 0.827,0.482 1.345,0.36 0.553,-0.131 -2.002,-2.111 -3.504,-3.655 -2.228,-2.288 -3.849,-4.443 -3.464,-4.912 0.312,-0.379 2.213,1.698 4.486,3.899 2.789,2.702 5.918,4.882 5.952,4.804 0.188,-0.435 -2.524,-2.988 -4.227,-5.455 -1.674,-2.424 -2.418,-4.858 -1.986,-5.08 0.419,-0.214 1.977,2.304 3.923,5.06 2.248,3.178 5.032,6.699 5.498,6.436 0.583,-0.331 -2.775,-3.822 -3.792,-6.534 -1.026,-2.739 -1.498,-4.554 -1.058,-4.625 0.584,-0.094 1.947,3.36 3.333,5.742 2.22,3.813 4.408,7.926 4.852,7.915 0.433,-0.011 -0.672,-1.78 -1.456,-3.583 -0.797,-1.834 -1.257,-3.783 -0.781,-3.745 0.46,0.035 1.994,4.377 3.888,8.582 1.984,4.408 4.415,7.401 3.419,9.108 -0.645,1.105 -1.621,1.059 -2.56,2.046 -0.907,0.945 -2.335,3.285 -1.885,3.931 z"
         id="path3036" />
      <path
         d="m 434.368,587.373 c -0.229,0.016 -0.347,0.108 -0.48,0.101 -0.391,-0.025 -2.055,-1.078 -2.271,-1.212 -0.219,-0.136 -1.541,-0.953 -1.758,-1.105 -0.218,-0.153 -1.123,-0.462 -1.456,-0.157 -0.333,0.304 -0.368,0.598 -0.386,0.783 0,0 -0.534,0.367 -0.554,0.581 -0.19,0.048 -0.975,0.633 -0.593,1.401 -0.171,0.474 -0.148,1.362 0.491,2.076 0.022,0.852 0.154,1.563 2.064,1.374 0.478,-0.048 3.949,-0.761 4.185,-0.331 0.139,0.253 -0.245,0.552 0.286,1.249 0.054,0.071 -0.065,0.14 -0.165,0.188 -0.133,0.063 -0.239,-0.294 -0.281,-0.281 -0.111,0.035 -0.237,0.633 0.003,0.979 -0.6,0.074 -0.423,0.868 -0.374,1.045 -0.386,0.269 -0.307,0.938 -0.119,1.229 -0.455,0.429 -0.374,1.044 -0.095,1.415 -0.375,0.272 -0.348,1.114 -0.024,1.556 -0.443,0.709 0.073,1.049 0.264,1.123 -0.125,0.696 -0.468,1.371 -0.454,1.719 0.014,0.348 0.597,0.183 0.879,0.146 -0.298,0.153 -1.867,0.998 -2.468,1.443 -0.601,0.445 -1.072,1.229 -0.974,1.525 0.098,0.296 1.157,-0.345 1.157,-0.345 -0.597,0.417 -1.43,1.075 -1.618,1.358 -0.189,0.282 -0.367,0.776 -0.281,0.861 0.087,0.085 3.595,-1.827 3.595,-1.827 -0.247,0.329 -1.287,1.233 -2.049,2.058 -0.762,0.823 -0.562,1.498 -0.504,1.579 0.028,0.04 0.877,-0.688 1.791,-1.415 0.958,-0.761 1.982,-1.525 1.982,-1.525 -0.616,0.49 -0.922,0.983 -1.776,1.988 -0.854,1.005 -0.678,1.817 -0.591,1.885 0.035,0.026 0.431,-0.432 0.938,-0.946 0.759,-0.768 1.721,-1.706 1.721,-1.706 -0.337,0.335 -0.703,0.886 -0.922,1.408 -0.229,0.552 -0.296,1.068 -0.141,1.067 0.167,0 0.996,-0.866 1.771,-1.815 1.062,-1.298 2.072,-2.729 1.624,-2.044 -0.775,1.187 -0.707,1.854 -0.586,1.884 0.06,0.016 1.015,-1.178 1.886,-2.618 0.928,-1.533 1.776,-3.328 1.939,-3.643 0.314,-0.608 1.206,-2.312 1.229,-2.705 0.023,-0.393 -0.409,-3.252 -0.432,-3.502 -0.021,-0.252 0.164,-1.737 0.317,-1.657 0.151,0.079 0.749,-0.171 1.216,-0.121 0.314,0.032 1.116,0.169 1.245,0.187 0.13,0.019 0.069,0.036 0.697,0.206 0.371,0.1 1.162,0.858 1.248,0.521 0.206,-0.816 -0.843,-1.597 -0.978,-1.719 -0.133,-0.123 -0.049,-0.172 -0.359,-0.645 -0.312,-0.475 -1.902,-1.486 -1.902,-1.486 -0.142,-0.195 -0.352,-0.428 -0.338,-0.844 0.015,-0.415 0.808,-2.645 1.93,-3.845 0.249,-0.265 0.339,-0.837 0.242,-1.679 0,0 -0.34,-4.96 -0.471,-5.989 -0.132,-1.027 -0.392,-2.836 -0.495,-3 -0.104,-0.163 -0.421,1.261 -0.346,1.711 0.076,0.449 0.317,1.948 0.324,2.157 -0.418,-1.886 -1.446,-6.571 -1.791,-7.284 -0.113,-0.231 -0.356,1.395 -0.337,1.824 0.02,0.431 0.409,2.164 0.703,2.722 -0.459,-0.774 -1.832,-5.24 -1.922,-5.204 -0.088,0.035 -0.464,0.552 -0.177,1.943 0.288,1.392 0.666,2.604 0.84,2.908 -0.413,-0.686 -1.993,-4.458 -2.24,-4.475 -0.247,-0.017 -0.361,1.149 -0.107,1.91 0.255,0.762 0.779,2.052 0.883,2.561 -0.313,-0.42 -0.827,-0.975 -1.066,-1.327 -0.239,-0.352 -1.258,-1.861 -1.494,-1.801 -0.236,0.06 0.003,1.225 0.446,1.983 0,0 0.802,1.665 1.068,2.047 0.266,0.382 0.801,1.062 0.873,1.264 0.071,0.205 -0.186,0.925 -0.193,1.059 -0.145,-0.097 -0.958,-0.695 -1.159,-0.456 -0.201,0.24 0.087,0.902 -0.109,1.065 -0.195,0.164 -0.56,0.634 -0.614,1.074 -0.151,0.051 -0.272,0.165 -0.328,0.375 -0.056,0.209 -0.09,0.942 -0.064,0.972 -0.208,0.074 -0.737,0.326 -0.602,0.636 0,0 -0.217,0.306 -0.038,0.68 -0.211,0.17 -0.739,0.862 -0.456,1.475 0,0 -0.581,0.522 -0.131,1.171 -0.297,0.179 -0.729,1.291 0.683,1.634 0,0 -0.292,0.26 -0.604,0.355 -0.146,0.045 -0.325,0.015 -0.457,-0.101 -0.216,-0.188 0.083,0.18 0.291,0.369 -0.075,0.007 -0.413,-0.039 -0.681,-0.02 z"
         id="path3038" />
      <path
         d="m 101.493,195.776 c -1.837,1.887 -2.136,3.588 -3.347,4.541 -3.525,2.775 -25.799,6.511 -28.685,7.018 -2.886,0.507 -20.451,3.638 -23.47,3.989 -3.027,0.35 -13.125,4.651 -13.645,9.799 -0.519,5.149 1.419,7.926 2.702,9.644 0,0 -1.762,7.22 -0.297,9.208 -1.258,1.868 -3.481,12.869 5.653,16.511 2.168,5.355 9.155,12.785 20.083,13.981 6.716,7.121 13.272,12.186 28.161,-4.05 3.718,-4.053 27.936,-36.704 33.228,-34.838 3.118,1.103 2.136,6.592 12.009,8.493 0.998,0.19 0.494,1.691 0.017,2.857 -0.64,1.559 -4.298,-0.68 -4.553,-0.247 -0.673,1.143 2.81,7.222 7.516,8.342 -4.564,5.215 3.026,10.653 4.787,11.777 -1.241,5.258 4.561,10.367 8.382,11.425 -0.598,7.141 4.788,11.778 10.03,12.81 -1.12,5.209 5.537,12.188 11.682,13.489 1.639,9.452 8.647,8.404 10.857,7.581 4.259,6.906 6.484,15.306 9.261,18.162 2.777,2.857 6.499,-3.008 8.618,-5.477 -1.367,3.59 -8.324,22.801 -10.042,31.203 -1.724,8.402 0.23,18.716 3.346,20.498 3.113,1.781 7.259,-11.801 7.259,-11.801 -1.909,8.122 -3.993,20.123 -3.448,23.989 0.545,3.865 2.81,9.447 4.197,9.51 1.39,0.064 16.754,-43.13 16.754,-43.13 0.395,4.715 -1.576,20.402 -1.783,33.271 -0.214,12.867 6.66,17.099 7.769,17.348 0.542,0.127 2.238,-12.585 4.491,-25.786 2.361,-13.84 5.267,-28.199 5.267,-28.199 -1.513,8.892 -0.348,15.438 0.034,30.574 0.379,15.13 8.108,20.727 9.364,20.633 0.502,-0.039 0.378,-6.99 0.785,-15.264 0.609,-12.38 1.653,-27.759 1.653,-27.759 -0.311,5.451 0.754,12.958 2.898,19.1 2.26,6.451 5.646,11.388 6.967,10.196 1.421,-1.28 1.887,-15.027 1.248,-29.07 -0.864,-19.211 -3.168,-39.187 -1.755,-29.904 2.448,16.074 8.137,21.267 9.405,20.594 0.615,-0.325 -0.339,-17.834 -3.916,-36.811 -3.803,-20.194 -10.282,-42.034 -11.302,-45.962 -1.967,-7.616 -7.367,-28.985 -10.18,-32.535 -2.815,-3.548 -28.378,-24.645 -30.488,-26.63 -2.104,-1.985 -11.894,-16.098 -9.969,-16.584 1.916,-0.487 5.107,-7.188 9.476,-10.341 2.94,-2.13 10.834,-7.088 12.074,-7.929 1.241,-0.836 0.859,-0.222 7.527,-3.577 3.941,-1.985 16.516,-1.552 14.649,-5.101 -4.493,-8.54 -19.421,-7.184 -21.505,-7.214 -2.083,-0.029 -1.728,-1.082 -8.003,-2.751 -6.282,-1.674 -27.618,1.859 -27.618,1.859 -2.711,-0.574 -6.297,-0.972 -9.355,-4.632 -3.054,-3.665 -13.333,-28.778 -12.916,-47.621 0.093,-4.169 -3.512,-9.744 -10.778,-16.203 0,0 -40.854,-39.795 -49.847,-47.582 C 93.749,29.4 77.689,15.936 75.554,15.33 73.425,14.723 81.607,29.322 85.699,32.586 89.79,35.85 103.302,46.809 104.97,48.552 86.968,35.621 42.339,3.446 33.921,0 31.199,-1.116 41.554,14.641 45.012,18.174 48.459,21.704 65.056,33.531 71.839,36.043 61.993,32.938 16.095,5.274 15.605,6.267 15.113,7.25 15.851,14.537 28.959,24.229 42.065,33.926 54.569,41.4 58.378,42.657 49.609,39.974 7.24,19.814 5.006,21.559 2.773,23.3 10.708,34.139 18.707,38.706 26.704,43.273 41.061,50.29 45.829,53.835 39.944,52.64 31.314,51.838 26.564,50.655 21.815,49.465 1.584,44.369 0.025,46.691 c -1.56,2.322 9.388,10.449 18.977,13.542 0,0 19.604,8.103 24.794,9.32 5.2,1.216 14.97,2.939 17.136,4.13 2.168,1.193 5.491,9.324 6.447,10.506 -1.976,0.292 -13.511,1.389 -13.398,4.978 0.111,3.593 7.644,7.056 7.224,9.945 -0.428,2.891 0.056,9.695 2.954,13.882 -0.897,1.592 -1.051,3.49 0.072,5.706 1.125,2.216 6.435,8.762 6.888,8.811 -1.216,2.219 -3.819,8.421 -0.285,10.038 0,0 0.489,4.263 4.874,6.094 -0.499,3.065 0.286,13.022 7.386,16.102 0,0 -0.966,8.901 7.851,11 -1.177,3.798 3.647,16.601 18.315,8.737 0,0 -0.502,4.467 -2.422,7.653 -0.906,1.499 -2.684,2.611 -4.692,2.639 -3.264,0.049 2.09,0.896 5.314,0.942 -0.586,0.68 -3.83,2.857 -5.967,5.06 z"
         id="path3040" />
      <path
         d="m 522.009,410.557 c 4.147,1.06 7.855,2.496 8.141,1.936 0.692,-1.359 -2.635,-4.811 -5.018,-5.993 -0.969,-0.481 -3.767,-1.382 -7.542,-5.11 -3.774,-3.727 -8.461,-6.76 -11.52,-7.971 -7.186,-2.847 -18.369,-2.991 -20.686,-6.922 -2.318,-3.933 -2.856,-11.205 1.244,-20.052 4.1,-8.846 -0.475,-9.69 -1.176,-10.676 -0.699,-0.986 -8.206,-10.132 -9.359,-12.341 -1.152,-2.207 -5.322,-9.332 -7.876,-13.511 -2.554,-4.179 -11.608,-18.931 -13.567,-18.014 -0.807,0.67 3.616,9.664 4.948,11.509 1.331,1.845 5.001,6.683 4.648,6.932 -0.352,0.25 -7.317,-7.087 -13.144,-15.17 -5.827,-8.083 -18.382,-23.598 -19.595,-22.493 -2.119,1.928 1.823,11.48 5.537,15.922 4.35,5.199 13.418,14.573 12.896,14.818 -0.524,0.246 -7.598,-7.02 -9.775,-8.789 -6.249,-5.076 -21.672,-23.553 -24.958,-21.77 -2.273,1.234 2.743,10.59 6.026,13.692 1.152,1.089 14.578,13.053 14.225,13.388 -0.796,0.756 -13.659,-8.544 -15.266,-9.793 -1.607,-1.249 -14.458,-11.065 -15.119,-8.841 -0.661,2.224 0.402,7.77 7.188,12.084 6.786,4.314 17.04,11.22 16.604,11.466 -0.438,0.248 -15.174,-6.688 -17.479,-7.608 -2.304,-0.921 -13.021,-6.544 -14.071,-5.968 -1.051,0.576 -0.542,5.556 5.466,8.677 6.636,3.448 13.629,6.389 13.35,7.244 -0.28,0.854 -20.402,-6.214 -20.169,-3.627 0.335,3.717 6.779,7.936 12.691,9.382 1.97,0.481 -0.906,1.701 -0.921,2.219 -0.013,0.516 1.337,1.672 1.812,3.323 0.476,1.649 2.845,6.713 3.872,6.997 -0.199,1.029 1.629,3.663 2.135,4.107 -0.639,1.363 -0.01,3.708 0.477,4.927 -0.131,1.722 1.422,5.037 2.345,6.01 0.924,0.973 -1.866,2.194 -2.747,2.86 -0.879,0.668 1.166,1.583 1.15,2.186 -0.016,0.603 -0.189,0.685 0.807,2.177 0.996,1.491 -0.913,1.96 -1.802,2.971 -0.889,1.012 -0.22,1.805 0.194,2.506 0.413,0.699 0.559,1.738 -0.144,2.238 -0.704,0.499 2.289,4.801 2.784,5.676 0.495,0.875 -2.586,3.295 -2.524,4.246 0.062,0.949 1.598,1.593 1.923,2.292 0.328,0.697 -0.585,2.657 -0.603,3.347 -0.018,0.688 1.866,1.168 1.851,1.771 -0.015,0.603 -1.938,1.589 -1.446,2.549 0.493,0.962 2.044,1.002 2.201,1.609 0.156,0.607 -0.731,1.62 -0.135,1.894 0.596,0.273 2.82,0.935 2.37,1.699 -0.451,0.765 -21.039,0.059 -24.39,-0.458 -3.348,-0.518 -21.818,-3.086 -24.834,-3.229 -4.047,-0.192 -3.458,3.703 -4.067,3.945 -0.61,0.244 -4.644,1.13 -4.479,4.756 -0.628,0.934 -2.064,6.287 -1.223,7.085 -0.265,0.952 -1.328,5.826 -0.572,6.623 0.756,0.793 1.391,0.294 1.554,0.642 0.099,0.21 0.474,6.809 3.488,11.816 2.004,3.328 5.887,5.757 8.193,6.592 1.687,0.61 1.042,3.045 2.563,4.204 1.522,1.161 5.338,0.312 12.079,-3.653 6.741,-3.964 23.885,-13.35 26.738,-13.707 2.855,-0.356 7.347,-0.672 8.367,-0.127 1.021,0.542 0.907,1.575 1.42,1.76 0.513,0.187 4.926,-0.477 5.349,-0.12 0.423,0.357 0.479,1.479 0.905,1.662 0.427,0.184 2.504,-0.109 2.667,0.241 0.164,0.349 0.475,5.014 0.81,5.365 0.336,0.355 3.529,0.265 3.529,0.265 0,0 0.089,3.194 0.506,3.722 0.418,0.527 3.858,0.876 4.108,1.227 0.249,0.351 0.108,2.417 0.268,2.938 0.159,0.522 0.976,2.269 1.137,2.703 0.161,0.436 1.72,0.218 1.713,0.476 -0.008,0.258 1.889,6.945 2.337,9.632 0.448,2.684 -0.264,6.89 0.836,7.694 1.101,0.804 2.329,-0.025 2.645,1.104 0.316,1.129 -3.853,8.952 2.056,7.209 -1.604,2.027 -4.222,6.529 -4.246,7.477 -0.024,0.948 -0.197,4.307 2.679,3.088 2.877,-1.219 5.371,-4.344 5.803,-4.333 0.432,0.011 -2.617,4.501 -2.563,5.71 0.056,1.208 1.989,5.355 8.696,-2.88 1.515,-1.856 2.253,5.602 8.882,-0.028 1.676,-1.422 3.2,-3.71 4.83,-3.41 1.631,0.302 6.36,0.857 12.39,-5.629 1.33,-1.432 0.411,0.788 6.488,-0.866 2.906,-0.79 6.756,-5.914 7.238,-9.814 0.872,-7.048 1.575,2.454 3.416,1.295 1.841,-1.159 2.491,-3.039 2.968,-8.113 0.478,-5.075 -3.296,-19.226 -2.977,-24.909 0.32,-5.682 -1.272,-10.81 -10.386,-15.184 0,0 -3.065,-1.46 -0.462,-2.081 1.361,-0.326 5.195,-0.714 8.654,-1.242 3.15,-0.482 5.947,-1.132 7.094,-0.938 1.091,0.181 4.106,0.604 7.55,1.485 z"
         id="path3042" />
      <path
         d="m 377.643,205.643 c 0.254,0.361 0.448,0.721 0.508,0.696 0.146,-0.06 0.115,-0.553 0.008,-0.805 -0.044,-0.102 -0.203,-0.359 -0.25,-0.904 -0.046,-0.544 -0.211,-1.095 -0.369,-1.395 -0.373,-0.703 -1.239,-1.461 -1.158,-1.924 0.081,-0.463 0.524,-1.069 1.437,-1.488 0.913,-0.418 0.61,-0.791 0.622,-0.915 0.011,-0.124 0.034,-1.343 0.091,-1.592 0.058,-0.25 0.206,-1.087 0.285,-1.585 0.079,-0.499 0.356,-2.26 0.141,-2.318 -0.107,-0.001 -0.361,0.999 -0.381,1.232 -0.019,0.234 -0.055,0.858 -0.099,0.854 -0.044,-0.004 -0.1,-1.044 -0.017,-2.067 0.083,-1.023 0.137,-3.077 -0.032,-3.072 -0.295,0.009 -0.624,1.021 -0.63,1.618 -0.007,0.698 0.077,2.039 0.021,2.022 -0.058,-0.015 -0.127,-1.058 -0.179,-1.342 -0.15,-0.815 -0.125,-3.294 -0.502,-3.374 -0.26,-0.055 -0.492,1.013 -0.441,1.476 0.017,0.162 0.27,1.997 0.22,1.999 -0.113,0.006 -0.5,-1.582 -0.542,-1.787 -0.043,-0.206 -0.394,-1.834 -0.594,-1.704 -0.201,0.13 -0.488,0.636 -0.245,1.428 0.244,0.792 0.586,2.018 0.535,2.008 -0.051,-0.01 -0.742,-1.538 -0.861,-1.765 -0.118,-0.226 -0.583,-1.383 -0.704,-1.408 -0.12,-0.025 -0.413,0.399 -0.151,1.045 0.289,0.713 0.642,1.411 0.563,1.459 -0.079,0.048 -1.184,-1.85 -1.339,-1.631 -0.221,0.313 0.001,1.074 0.368,1.583 0.123,0.169 -0.185,0.072 -0.221,0.112 -0.035,0.04 -0.007,0.221 -0.08,0.382 -0.072,0.161 -0.226,0.716 -0.164,0.807 -0.084,0.067 -0.117,0.396 -0.106,0.464 -0.142,0.064 -0.249,0.29 -0.293,0.418 -0.125,0.126 -0.225,0.49 -0.218,0.627 0.008,0.138 -0.293,0.047 -0.406,0.041 -0.113,-0.006 -0.014,0.202 -0.056,0.248 -0.042,0.046 -0.061,0.041 -0.082,0.225 -0.022,0.184 -0.203,0.093 -0.34,0.112 -0.138,0.02 -0.138,0.127 -0.152,0.209 -0.015,0.082 -0.072,0.173 -0.161,0.166 -0.089,-0.007 -0.142,0.53 -0.161,0.631 -0.02,0.102 -0.422,0.086 -0.481,0.165 -0.059,0.078 0.02,0.231 -0.002,0.308 -0.022,0.077 -0.224,0.169 -0.271,0.222 -0.047,0.053 0.068,0.216 0.026,0.262 -0.041,0.046 -0.258,-0.004 -0.283,0.103 -0.025,0.108 0.094,0.215 0.065,0.273 -0.029,0.059 -0.166,0.079 -0.138,0.14 0.029,0.062 0.159,0.262 0.072,0.292 -0.086,0.029 -1.652,-1.401 -1.881,-1.666 -0.228,-0.264 -1.504,-1.7 -1.729,-1.913 -0.305,-0.285 -0.519,0.06 -0.583,0.038 -0.063,-0.021 -0.438,-0.222 -0.669,0.073 -0.111,0.031 -0.581,0.355 -0.568,0.474 -0.085,0.056 -0.494,0.367 -0.487,0.48 0.005,0.113 0.089,0.116 0.078,0.154 -0.006,0.023 -0.418,0.565 -0.516,1.159 -0.066,0.395 0.076,0.845 0.201,1.064 0.091,0.161 -0.122,0.308 -0.08,0.501 0.041,0.193 0.397,0.381 1.19,0.521 0.793,0.14 2.764,0.55 3.012,0.713 0.247,0.163 0.62,0.438 0.664,0.549 0.043,0.11 -0.035,0.184 -0.007,0.232 0.027,0.049 0.418,0.292 0.427,0.348 0.01,0.056 -0.062,0.148 -0.04,0.191 0.021,0.042 0.204,0.159 0.193,0.197 -0.011,0.038 -0.298,0.424 -0.296,0.475 0.003,0.05 0.259,0.256 0.259,0.256 0,0 -0.205,0.256 -0.208,0.326 -0.003,0.07 0.244,0.326 0.24,0.37 -0.005,0.044 -0.153,0.197 -0.176,0.248 -0.022,0.052 -0.076,0.243 -0.092,0.288 -0.017,0.045 0.12,0.132 0.103,0.152 -0.018,0.02 -0.316,0.67 -0.461,0.911 -0.144,0.24 -0.48,0.522 -0.448,0.659 0.032,0.137 0.185,0.154 0.133,0.263 -0.05,0.109 -0.899,0.444 -0.319,0.702 -0.262,0.052 -0.768,0.23 -0.833,0.303 -0.065,0.072 -0.303,0.324 0.003,0.421 0.308,0.097 0.712,0.018 0.745,0.048 0.033,0.03 -0.507,0.178 -0.583,0.276 -0.076,0.098 -0.202,0.553 0.874,0.355 0.243,-0.044 -0.197,0.589 0.698,0.591 0.226,0.001 0.499,-0.077 0.606,0.056 0.107,0.133 0.441,0.492 1.347,0.387 0.2,-0.023 -0.021,0.089 0.566,0.366 0.28,0.132 0.925,-0.012 1.224,-0.285 0.539,-0.494 -0.041,0.298 0.18,0.33 0.223,0.032 0.399,-0.072 0.775,-0.438 0.377,-0.366 1.026,-1.728 1.432,-2.151 0.404,-0.424 0.622,-0.932 0.201,-1.884 0,0 -0.143,-0.319 0.103,-0.194 0.129,0.066 0.454,0.292 0.761,0.481 0.279,0.172 0.542,0.309 0.619,0.4 0.07,0.088 0.278,0.323 0.489,0.622 z"
         id="path3044" />
    </g>
  </g>
</svg>
